<svg xmlns="http://www.w3.org/2000/svg" width="1400" height="700" viewBox="0 0 1400 700" role="img" aria-label="Example 1: Card Program Authorization to Settlement (T+1)"><defs><marker id="arrow" markerWidth="10" markerHeight="10" refX="8" refY="3" orient="auto" markerUnits="strokeWidth"><path d="M0,0 L0,6 L9,3 z" fill="#475569"/></marker><style>.title{font:700 28px Inter,Segoe UI,sans-serif;fill:#0f172a}.label{font:600 14px Inter,Segoe UI,sans-serif;fill:#0f172a}.sub{font:500 12px Inter,Segoe UI,sans-serif;fill:#334155}.edge{stroke:#64748b;stroke-width:2.5;fill:none;marker-end:url(#arrow)}.edgeText{font:600 12px Inter,Segoe UI,sans-serif;fill:#334155}.edgePill{fill:#f8fafc;stroke:#e2e8f0;stroke-width:1;rx:6}.box{fill:#fff;stroke:#cbd5e1;stroke-width:1.4;rx:12}</style></defs><rect width="100%" height="100%" fill="#f8fafc"/><text x="48" y="56" class="title">Example 1: Card Program Authorization to Settlement (T+1)</text><path d="M 248.51 285.00 C 308.51 285.00, 284.93 285.00, 344.93 285.00" class="edge"/><rect x="237.13" y="216.00" width="117" height="18" class="edgePill"/><text x="243.13" y="228.00" class="edgeText">Purchase request</text><path d="M 504.32 285.00 C 564.32 285.00, 540.75 285.00, 600.75 285.00" class="edge"/><rect x="500.94" y="216.00" width="101" height="18" class="edgePill"/><text x="506.94" y="228.00" class="edgeText">Authorization</text><path d="M 759.25 285.00 C 819.25 285.00, 795.68 285.00, 855.68 285.00" class="edge"/><rect x="750.87" y="216.00" width="111" height="18" class="edgePill"/><text x="756.87" y="228.00" class="edgeText">Clearing events</text><path d="M 1015.07 285.00 C 1075.07 285.00, 1051.49 285.00, 1111.49 285.00" class="edge"/><rect x="1003.69" y="216.00" width="117" height="18" class="edgePill"/><text x="1009.69" y="228.00" class="edgeText">Settlement batch</text><rect x="90.00" y="248.90" width="158.51" height="72.21" class="box"/><text x="110.00" y="278.90" class="label">Cardholder</text><text x="110.00" y="302.90" class="sub">Initiates purchase</text><rect x="344.93" y="248.90" width="159.39" height="72.21" class="box"/><text x="364.93" y="278.90" class="label">Card Network</text><text x="364.93" y="302.90" class="sub">Routes auth + clearing</text><rect x="600.75" y="248.90" width="158.51" height="72.21" class="box"/><text x="620.75" y="278.90" class="label">Issuer Program</text><text x="620.75" y="302.90" class="sub">Approves + hold funds</text><rect x="855.68" y="248.90" width="159.39" height="72.21" class="box"/><text x="875.68" y="278.90" class="label">Processor</text><text x="875.68" y="302.90" class="sub">Clearing file + ledger</text><rect x="1111.49" y="248.90" width="158.51" height="72.21" class="box"/><text x="1131.49" y="278.90" class="label">Sponsor Bank</text><text x="1131.49" y="302.90" class="sub">Net settlement on T+1</text><rect x="90" y="500" width="1180" height="130" fill="#eef2ff" stroke="#c7d2fe" rx="12"/><text x="115" y="535" class="label">Controls</text><text x="115" y="558" class="sub">KYC/KYB before issuance - AML and velocity checks - Daily reconciliation between processor and sponsor bank reports</text></svg>
