<svg xmlns="http://www.w3.org/2000/svg" width="1400" height="700" viewBox="0 0 1400 700" role="img" aria-label="Example 2: Marketplace Split Payout (Platform + Seller)"><defs><marker id="arrow" markerWidth="10" markerHeight="10" refX="8" refY="3" orient="auto" markerUnits="strokeWidth"><path d="M0,0 L0,6 L9,3 z" fill="#475569"/></marker><style>.title{font:700 28px Inter,Segoe UI,sans-serif;fill:#0f172a}.label{font:600 14px Inter,Segoe UI,sans-serif;fill:#0f172a}.sub{font:500 12px Inter,Segoe UI,sans-serif;fill:#334155}.edge{stroke:#64748b;stroke-width:2.5;fill:none;marker-end:url(#arrow)}.edgeText{font:600 12px Inter,Segoe UI,sans-serif;fill:#334155}.edgePill{fill:#f8fafc;stroke:#e2e8f0;stroke-width:1;rx:6}.box{fill:#fff;stroke:#cbd5e1;stroke-width:1.4;rx:12}</style></defs><rect width="100%" height="100%" fill="#f8fafc"/><text x="48" y="56" class="title">Example 2: Marketplace Split Payout (Platform + Seller)</text><path d="M 292.29 245.60 C 360.28 245.60, 347.91 257.19, 415.90 257.19" class="edge"/><rect x="322.43" y="212.04" width="60" height="18" class="edgePill"/><text x="328.43" y="224.04" class="edgeText">Payment</text><path d="M 618.19 257.19 C 686.18 257.19, 673.82 280.36, 741.81 280.36" class="edge"/><rect x="636.33" y="229.08" width="84" height="18" class="edgePill"/><text x="642.33" y="241.08" class="edgeText">To splitter</text><path d="M 944.10 280.36 C 1012.09 280.36, 999.72 390.36, 1067.71 390.36" class="edge"/><rect x="946.23" y="353.06" width="116" height="18" class="edgePill"/><text x="952.23" y="365.06" class="edgeText">Seller share 92%</text><path d="M 944.10 280.36 C 1012.09 280.36, 999.72 179.64, 1067.71 179.64" class="edge"/><rect x="949.23" y="194.02" width="110" height="18" class="edgePill"/><text x="955.23" y="206.02" class="edgeText">Platform fee 8%</text><rect x="90.00" y="199.52" width="202.29" height="92.15" class="box"/><text x="110.00" y="229.52" class="label">Buyer</text><text x="110.00" y="253.52" class="sub">Pays USD 250</text><rect x="415.90" y="211.11" width="202.29" height="92.15" class="box"/><text x="435.90" y="241.11" class="label">Platform Wallet</text><text x="435.90" y="265.11" class="sub">Receives gross funds</text><rect x="741.81" y="234.29" width="202.29" height="92.15" class="box"/><text x="761.81" y="264.29" class="label">Splitter Engine</text><text x="761.81" y="288.29" class="sub">Apply 92/8 rule</text><rect x="1067.71" y="344.28" width="202.29" height="92.15" class="box"/><text x="1087.71" y="374.28" class="label">Seller FBO Account</text><text x="1087.71" y="398.28" class="sub">USD 230 payout leg</text><rect x="1067.71" y="133.57" width="202.29" height="92.15" class="box"/><text x="1087.71" y="163.57" class="label">Platform Revenue</text><text x="1087.71" y="187.57" class="sub">USD 20 fee leg</text><rect x="90" y="500" width="1180" height="130" fill="#eef2ff" stroke="#c7d2fe" rx="12"/><text x="115" y="535" class="label">Controls</text><text x="115" y="558" class="sub">Versioned split rules - Negative balance prevention - Idempotent payout retries - ACH cutoff handling</text></svg>
