<svg xmlns="http://www.w3.org/2000/svg" width="1400" height="700" viewBox="0 0 1400 700" role="img" aria-label="Example 3: Cross-Border Remittance (USD to MXN)"><defs><marker id="arrow" markerWidth="10" markerHeight="10" refX="8" refY="3" orient="auto" markerUnits="strokeWidth"><path d="M0,0 L0,6 L9,3 z" fill="#475569"/></marker><style>.title{font:700 28px Inter,Segoe UI,sans-serif;fill:#0f172a}.label{font:600 14px Inter,Segoe UI,sans-serif;fill:#0f172a}.sub{font:500 12px Inter,Segoe UI,sans-serif;fill:#334155}.edge{stroke:#64748b;stroke-width:2.5;fill:none;marker-end:url(#arrow)}.edgeText{font:600 12px Inter,Segoe UI,sans-serif;fill:#334155}.edgePill{fill:#f8fafc;stroke:#e2e8f0;stroke-width:1;rx:6}.box{fill:#fff;stroke:#cbd5e1;stroke-width:1.4;rx:12}</style></defs><rect width="100%" height="100%" fill="#f8fafc"/><text x="48" y="56" class="title">Example 3: Cross-Border Remittance (USD to MXN)</text><path d="M 248.51 285.00 C 308.51 285.00, 285.37 285.00, 345.37 285.00" class="edge"/><rect x="265.83" y="246.00" width="60" height="18" class="edgePill"/><text x="271.83" y="258.00" class="edgeText">Funding</text><path d="M 503.88 285.00 C 563.88 285.00, 540.75 285.00, 600.75 285.00" class="edge"/><rect x="518.71" y="246.00" width="65" height="18" class="edgePill"/><text x="524.71" y="258.00" class="edgeText">KYC pass</text><path d="M 759.25 285.00 C 819.25 285.00, 780.27 285.00, 840.27 285.00" class="edge"/><rect x="761.63" y="216.00" width="75" height="18" class="edgePill"/><text x="767.63" y="228.00" class="edgeText">SWIFT leg</text><path d="M 1030.48 285.00 C 1090.48 285.00, 1051.49 285.00, 1111.49 285.00" class="edge"/><rect x="1021.85" y="216.00" width="97" height="18" class="edgePill"/><text x="1027.85" y="228.00" class="edgeText">Credit posted</text><rect x="90.00" y="248.90" width="158.51" height="72.21" class="box"/><text x="110.00" y="278.90" class="label">Sender</text><text x="110.00" y="302.90" class="sub">Funds USD 500</text><rect x="345.37" y="248.90" width="158.51" height="72.21" class="box"/><text x="365.37" y="278.90" class="label">Compliance</text><text x="365.37" y="302.90" class="sub">KYC + sanctions pass</text><rect x="600.75" y="248.90" width="158.51" height="72.21" class="box"/><text x="620.75" y="278.90" class="label">FX Engine</text><text x="620.75" y="302.90" class="sub">Quote + lock USD/MXN</text><rect x="840.27" y="248.90" width="190.21" height="72.21" class="box"/><text x="860.27" y="278.90" class="label">Correspondent Bank</text><text x="860.27" y="302.90" class="sub">Receives SWIFT instruction</text><rect x="1111.49" y="248.90" width="158.51" height="72.21" class="box"/><text x="1131.49" y="278.90" class="label">Recipient Account</text><text x="1131.49" y="302.90" class="sub">Credits MXN funds</text><rect x="90" y="500" width="1180" height="130" fill="#eef2ff" stroke="#c7d2fe" rx="12"/><text x="115" y="535" class="label">Controls</text><text x="115" y="558" class="sub">Sanctions screening before FX lock - Quote expiry and slippage limits - End-to-end trace ID and webhook confirmation</text></svg>
